<svg id="Capa_1" data-name="Capa 1" xmlns="http://www.w3.org/2000/svg" viewBox="0 0 415.62 406.73"><defs><style>.cls-1{fill:#0a0c07;}.cls-2{fill:#d9a679;}.cls-3{fill:#fff;}</style></defs><path class="cls-1" d="M228.52,502l-74.44,38.23c-1.1.57-2.17,1.22-3.32,1.68a7.78,7.78,0,0,1-8.92-1.71,7.67,7.67,0,0,1-1.78-8.59c1.05-2.9,2.23-5.75,3.35-8.63a20.33,20.33,0,0,0,1.27-2.21c10.33-24.23,20.58-48.5,31-72.67,1.41-3.27,1.41-5.61-.56-8.76-27.4-43.76-36.89-91.2-27.34-142,10.86-57.71,42.2-101.71,91.75-132.89,11.81-7.44,24.61-12.88,37.58-17.91a225.68,225.68,0,0,1,42.14-9.35c35.17-3.93,69.22.55,101.35,15.3,62.83,28.86,102.3,77.21,115.32,145.28,16.45,86-25.77,171.09-103.48,211.35-36.29,18.8-74.88,25.24-115.42,20.39a200.46,200.46,0,0,1-54.41-14.85c-8.21-3.83-16.49-7.6-23.93-12.78C234.9,499.28,231.91,499.23,228.52,502ZM397.89,160.72a90.73,90.73,0,0,0-9.12-3.46,176.3,176.3,0,0,0-76.21-3.92c-44.38,7.56-81.5,28.4-110.3,63-35.2,42.31-48.54,91.18-40.72,145.58,3.92,27.35,14.25,52.41,30,75.15a9.32,9.32,0,0,1,1,9.81c-2.59,5.92-5.09,11.87-7.6,17.82q-9.72,23-19.41,46l-4,8.81,52.18-27c5.1-2.59,10.26-5,15.26-7.79,4-2.21,7.63-2.16,11.44.6a117.55,117.55,0,0,0,10.74,6.7c31.73,18.16,65.95,25.84,102.35,23.79,8.53-.47,17.09-1.32,25.39-3.67,19.31-3.45,37.19-10.8,54.1-20.48,67.18-38.45,103.14-115.22,88-191.51-13.5-67.94-54.16-113.84-118.73-138.67A7.13,7.13,0,0,0,397.89,160.72Z" transform="translate(-123.86 -135.9)"/><path class="cls-2" d="M277.15,146.6c-13,5-25.77,10.47-37.58,17.91C190,195.69,158.68,239.69,147.82,297.4c-9.55,50.75-.06,98.19,27.34,142,2,3.15,2,5.49.56,8.76-10.46,24.17-20.71,48.44-31,72.67a20.33,20.33,0,0,1-1.27,2.21c-4.22,2.11-8.47,4.16-12.66,6.34-2.1,1.09-4,1.24-5.84-.44s-.88-3.34-.13-5.1q13.74-32.23,27.42-64.5c2.18-5.15,4.14-10.41,6.42-15.51a4.19,4.19,0,0,0-.53-4.74A175.16,175.16,0,0,1,136.15,396a177.54,177.54,0,0,1-8.28-33.23,189.14,189.14,0,0,1-2.49-36,193.67,193.67,0,0,1,6.91-45.24A197.58,197.58,0,0,1,154.62,231c6.25-10.09,13.75-19.18,21.7-27.94a187.5,187.5,0,0,1,44.54-35.87,162.58,162.58,0,0,1,37.52-16.28C264.57,149.11,270.55,146.49,277.15,146.6Z" transform="translate(-123.86 -135.9)"/><path class="cls-2" d="M228.52,502c3.39-2.78,6.38-2.73,10.2-.07,7.44,5.18,15.72,8.95,23.93,12.78-7.84-.46-14.61-4.32-21.74-6.94C236.65,506.21,232.64,504,228.52,502Z" transform="translate(-123.86 -135.9)"/><path class="cls-2" d="M165.52,510.69q9.71-23,19.41-46c2.51-5.95,5-11.9,7.6-17.82a9.32,9.32,0,0,0-1-9.81c-15.75-22.74-26.08-47.8-30-75.15-7.82-54.4,5.52-103.27,40.72-145.58,28.8-34.61,65.92-55.45,110.3-63a176.3,176.3,0,0,1,76.21,3.92,90.73,90.73,0,0,1,9.12,3.46c6.91,4.36,14.41,7.67,21.24,12.25a196.88,196.88,0,0,1,42.21,37.55,200,200,0,0,1,25.46,39.3A197.33,197.33,0,0,1,496.08,273a179.41,179.41,0,0,1,9,42.94,192.46,192.46,0,0,1-11.28,83.23,196.2,196.2,0,0,1-19.29,37.79A185.35,185.35,0,0,1,436,479.75a197.36,197.36,0,0,1-57.12,32.34c-8.3,2.35-16.86,3.2-25.39,3.67-36.4,2-70.62-5.63-102.35-23.79a117.55,117.55,0,0,1-10.74-6.7c-3.81-2.76-7.4-2.81-11.44-.6-5,2.74-10.16,5.2-15.25,7.78a7.19,7.19,0,0,1-3.32-1.47,3.75,3.75,0,0,0-4.51-.38c-6.69,3.43-13.31,7-20.07,10.31S172.89,508.71,165.52,510.69ZM340.2,201.75h0c-3.62,0-7.24-.1-10.85,0-12.08.4-22.55,11.93-21.16,23.84,2.32,19.78,5,39.51,7.57,59.25q3.56,27.58,7.09,55.16c2.32,18.14,4.55,36.29,6.92,54.43a10.08,10.08,0,0,0,10.1,9.16c5.3,0,9.36-3.39,10.1-9q5.63-42.56,11-85.14c3.44-26.65,6.67-53.33,10.34-79.95,2.2-15.94-7.59-27.75-23.67-27.74Zm-.46,267.91c12,0,21.48-9.24,21.46-21A21.37,21.37,0,0,0,339.77,427a21.77,21.77,0,0,0-21.24,21.59A21.31,21.31,0,0,0,339.74,469.66Z" transform="translate(-123.86 -135.9)"/><path class="cls-3" d="M165.52,510.69c7.37-2,13.53-6.5,20.28-9.78s13.38-6.88,20.07-10.31a3.75,3.75,0,0,1,4.51.38,7.19,7.19,0,0,0,3.32,1.47L161.51,519.5Z" transform="translate(-123.86 -135.9)"/><path class="cls-1" d="M340.2,201.75h7.47c16.08,0,25.87,11.8,23.67,27.74-3.67,26.62-6.9,53.3-10.34,79.95q-5.47,42.57-11,85.14c-.74,5.65-4.8,9.05-10.1,9a10.08,10.08,0,0,1-10.1-9.16c-2.37-18.14-4.6-36.29-6.92-54.43q-3.53-27.58-7.09-55.16c-2.54-19.74-5.25-39.47-7.57-59.25-1.39-11.91,9.08-23.44,21.16-23.84,3.61-.12,7.23,0,10.85,0Z" transform="translate(-123.86 -135.9)"/><path class="cls-1" d="M339.74,469.66a21.31,21.31,0,0,1-21.21-21.06A21.77,21.77,0,0,1,339.77,427a21.37,21.37,0,0,1,21.43,21.63C361.22,460.42,351.76,469.69,339.74,469.66Z" transform="translate(-123.86 -135.9)"/></svg>