<svg id="Capa_1" data-name="Capa 1" xmlns="http://www.w3.org/2000/svg" viewBox="0 0 164.41 164.41"><defs><style>.cls-1{fill:#1d1d1b;}</style></defs><polygon class="cls-1" points="59.8 86.4 71.28 86.4 65.56 73.55 59.8 86.4"/><path class="cls-1" d="M135.15,99.68A4.68,4.68,0,0,0,136.5,98a4.78,4.78,0,0,0,.49-2.2,4.41,4.41,0,0,0-1.69-3.7,7.6,7.6,0,0,0-4.77-1.32h-7.79v10.26h7.76a8.91,8.91,0,0,0,2.59-.36A6.32,6.32,0,0,0,135.15,99.68Z" transform="translate(-17.8 -17.8)"/><path class="cls-1" d="M77.85,56.05a3.82,3.82,0,0,0,1.23.87,3.57,3.57,0,0,0,1.54.32,3.73,3.73,0,0,0,1.55-.31,3.65,3.65,0,0,0,1.21-.86,4,4,0,0,0,.79-1.28,4.45,4.45,0,0,0,0-3.16,3.81,3.81,0,0,0-2-2.16,3.72,3.72,0,0,0-1.54-.32,3.77,3.77,0,0,0-1.55.32,3.61,3.61,0,0,0-1.21.86,3.89,3.89,0,0,0-.79,1.28,4.29,4.29,0,0,0-.29,1.57,4.44,4.44,0,0,0,.29,1.59A3.91,3.91,0,0,0,77.85,56.05Z" transform="translate(-17.8 -17.8)"/><polygon class="cls-1" points="111.93 31.73 109.69 36.73 114.15 36.73 111.93 31.73"/><path class="cls-1" d="M100,17.8A82.2,82.2,0,1,0,182.2,100,82.2,82.2,0,0,0,100,17.8Zm29.22,30.43h1l4.47,9.87h-1.19l-1.15-2.59h-5.33l-1.16,2.59h-1.14Zm-25.52.07h7.08v1h-6v3.34h5.35v1H104.8v3.43h6v1H103.7Zm-9.51,0,3.49,8.44,3.5-8.44h1.19l-4.22,9.87h-1L93,48.3Zm-6.85,0h1.11v8.78H94v1H87.34ZM76,51.27a4.9,4.9,0,0,1,1-1.61,5,5,0,0,1,1.58-1.12,5.06,5.06,0,0,1,2-.41,5,5,0,0,1,2,.41,4.79,4.79,0,0,1,2.59,2.71,5.21,5.21,0,0,1-1,5.49,4.7,4.7,0,0,1-1.58,1.11,4.9,4.9,0,0,1-2,.42,5,5,0,0,1-2-.41A4.78,4.78,0,0,1,77,56.76a4.9,4.9,0,0,1-1-1.61,5.26,5.26,0,0,1-.36-1.94A5.07,5.07,0,0,1,76,51.27Zm-8.87-3,3.49,8.44,3.5-8.44h1.19l-4.21,9.87h-1L65.88,48.3Zm-9.55,65.08L51.87,96.89l-5.68,16.49H41.36L32.76,88H38.7l5.22,17.06,5.65-17.13h4.75L60,105.06,65.19,88H71l-8.6,25.38Zm35.59,0-3-6.66H76.48l-3,6.66H70.57L82.06,88h2.66l11.49,25.38Zm13.24-10v10h-2.84v-10L93.07,88.18h3.46l8.48,12.6,8.55-12.6h3.31Zm10-49.08h-2.8V58.1h-1.11V48.3h4.22a4.72,4.72,0,0,1,1.46.21,3.26,3.26,0,0,1,1.11.59A2.71,2.71,0,0,1,120,50a2.77,2.77,0,0,1,.25,1.2,3,3,0,0,1-.19,1.1,2.69,2.69,0,0,1-.56.84,3.3,3.3,0,0,1-.85.59,4,4,0,0,1-1.06.34l3,4h-1.36Zm20.87,59.09-7.31-9.79h-7.2v9.79h-2.85V88.18h10.84a12.24,12.24,0,0,1,3.76.54,8.41,8.41,0,0,1,2.86,1.53,6.67,6.67,0,0,1,1.84,2.38,7.2,7.2,0,0,1,.65,3.08,7.44,7.44,0,0,1-.51,2.83,6.54,6.54,0,0,1-1.42,2.16,8,8,0,0,1-2.18,1.53,10.13,10.13,0,0,1-2.73.86l7.74,10.29Zm24.58-6.66H148.12l-3,6.66h-2.92L153.7,88h2.66l11.48,25.38h-3.06Z" transform="translate(-17.8 -17.8)"/><path class="cls-1" d="M118.41,52.77a1.94,1.94,0,0,0,.53-.64,2,2,0,0,0,.18-.86,1.69,1.69,0,0,0-.66-1.44,2.93,2.93,0,0,0-1.85-.51h-3v4h3a3.62,3.62,0,0,0,1-.14A2.5,2.5,0,0,0,118.41,52.77Z" transform="translate(-17.8 -17.8)"/><polygon class="cls-1" points="131.44 86.4 142.92 86.4 137.2 73.55 131.44 86.4"/></svg>