<svg id="Capa_1" data-name="Capa 1" xmlns="http://www.w3.org/2000/svg" viewBox="0 0 315.08 315.08"><defs><style>.cls-1{fill:#121313;}.cls-2{fill:#f3f4f5;}.cls-3{fill:#d9a679;stroke:#d9a679;stroke-miterlimit:10;stroke-width:9px;}</style></defs><path class="cls-1" d="M392.84,413.72c0,37.12-.22,74.25.16,111.37.1,9.89-5.58,16.41-16.49,16.34-53.93-.35-107.87-.16-161.81-.16-11,0-15.82-4.75-15.82-15.68q0-112.38,0-224.76c0-10.61,4.89-15.42,15.57-15.42q81.42,0,162.82,0c10.69,0,15.56,4.81,15.57,15.43Q392.86,357.27,392.84,413.72ZM207.13,426.85c0,27.8.06,55.61-.07,83.41,0,3.58.43,5.12,4.71,5.11q84.17-.27,168.31,0c3.85,0,4.6-1.09,4.59-4.73q-.18-83.91,0-167.81c0-4.07-1.2-4.86-5-4.85q-83.91.18-167.81,0c-4.09,0-4.86,1.22-4.84,5C207.2,370.91,207.13,398.88,207.13,426.85ZM326.65,329.5c18,0,35.94-.09,53.91.08,3.34,0,4.2-.95,4.12-4.18-.23-8.15,0-16.31-.09-24.46,0-5.68-1.49-7.25-7-7.26-34.94,0-69.89,0-104.83-.09-3.23,0-3.85,1.12-3.79,4.05.17,8.81.29,17.64,0,26.45-.15,4.2.68,5.64,5.31,5.55C291.7,329.3,309.17,329.5,326.65,329.5Zm-30.86,194H259.85c-16.31,0-32.61.12-48.92-.09-3.71,0-4.14,1.57-3.78,4.46.58,4.71,3.88,5.12,7.66,5.12q81.12,0,162.24,0a18.48,18.48,0,0,0,3-.13c4.07-.7,4.75-3.67,4.56-7.1-.22-3.79-3.22-2.15-4.94-2.16C351.7,523.51,323.74,523.54,295.79,523.54Zm-61.93-194c7.65,0,15.31-.1,23,.06,2.79.05,4.16-.3,4.07-3.68-.26-9.48-.17-19,0-28.46,0-2.64-.43-3.85-3.48-3.82-14.65.15-29.3.07-43.94.06-4.37,0-6.35,2.18-6.33,6.5.05,8.65.16,17.31-.06,26-.07,3.13,1.29,3.47,3.85,3.43C218.54,329.43,226.2,329.5,233.86,329.5Z" transform="translate(-138.72 -259.29)"/><path class="cls-1" d="M296,479.36A61.88,61.88,0,0,1,234.13,418c-.34-33.79,27.78-61.89,61.87-61.8,33.91.09,61.66,27.83,61.6,61.57A61.92,61.92,0,0,1,296,479.36Zm53-61.8a53.16,53.16,0,1,0-53.09,53.55A53.33,53.33,0,0,0,349,417.56Z" transform="translate(-138.72 -259.29)"/><path class="cls-1" d="M296.09,324.55a12.89,12.89,0,0,1-13.22-12.67,13,13,0,1,1,26-.45A12.87,12.87,0,0,1,296.09,324.55Zm4.39-12.93c-.45-2.53-1.61-4.34-4.44-4.41-3.08-.07-4.7,1.76-4.71,4.54a4.24,4.24,0,0,0,4.35,4.47C298.6,316.3,300.08,314.41,300.48,311.62Z" transform="translate(-138.72 -259.29)"/><path class="cls-1" d="M359.59,315.68c-2.16,0-4.31.06-6.46,0a3.75,3.75,0,0,1-3.88-3.76,3.92,3.92,0,0,1,3.88-4.34c4.63-.21,9.29-.2,13.91.05a3.76,3.76,0,0,1,3.63,4,3.7,3.7,0,0,1-3.64,4c-2.47.18-5,0-7.44,0Z" transform="translate(-138.72 -259.29)"/><path class="cls-1" d="M329.22,315.69c-2.31,0-4.63.05-7,0a3.75,3.75,0,0,1-3.94-3.68,3.88,3.88,0,0,1,3.77-4.42c4.63-.23,9.28-.2,13.91,0a3.78,3.78,0,0,1,3.7,4c0,2.55-1.56,4-4,4.13-2.14.14-4.3,0-6.46,0Z" transform="translate(-138.72 -259.29)"/><path class="cls-1" d="M233.76,324.57c-4.15,0-8.29,0-12.43,0-2.69,0-4.57-1.14-4.57-4.05s1.82-4.12,4.51-4.14q12.67,0,25.35,0c2.71,0,4.54,1.27,4.58,4.09s-1.78,4.1-4.52,4.1Z" transform="translate(-138.72 -259.29)"/><path class="cls-2" d="M349,417.56a53.16,53.16,0,1,1-53.48-53.12A53.38,53.38,0,0,1,349,417.56Zm-53.18,44.06a43.92,43.92,0,1,0-43.93-44.13A43.9,43.9,0,0,0,295.84,461.62Z" transform="translate(-138.72 -259.29)"/><path class="cls-2" d="M300.48,311.62c-.4,2.79-1.88,4.68-4.8,4.6a4.24,4.24,0,0,1-4.35-4.47c0-2.78,1.63-4.61,4.71-4.54C298.87,307.28,300,309.09,300.48,311.62Z" transform="translate(-138.72 -259.29)"/><path class="cls-1" d="M295.84,461.62a43.92,43.92,0,1,1,44-43.6A43.9,43.9,0,0,1,295.84,461.62Zm.09-79.35a35.52,35.52,0,1,0,35.55,35.56A35.61,35.61,0,0,0,295.93,382.27Z" transform="translate(-138.72 -259.29)"/><line class="cls-3" x1="3.18" y1="3.18" x2="311.9" y2="311.9"/><line class="cls-3" x1="3.18" y1="311.9" x2="311.9" y2="3.18"/></svg>