<svg id="Capa_1" data-name="Capa 1" xmlns="http://www.w3.org/2000/svg" viewBox="0 0 408.87 262.68"><defs><style>.cls-1{fill:#fff;}</style></defs><path d="M100.15,498a18.56,18.56,0,0,0,1-2,24.78,24.78,0,0,1,12-14.24Q180,445.47,246.82,409.08a20.65,20.65,0,0,0,10.75-13c5.49-18.29,17.75-29.78,36.27-34.41,2.15-.53,2.8-1.35,2.76-3.44-.1-6.25,0-12.51,0-18.76,0-8.14,2.2-10.64,10.38-11.38a22.83,22.83,0,0,0,15.78-8.29,23.62,23.62,0,0,0,2.41-27.14c-4.9-8.58-15.29-13.45-24.76-11.6a23.76,23.76,0,0,0-19.18,19.41c-.24,1.44-.43,2.89-.62,4.34-.59,4.59-4,7.89-8.09,7.81-4.48-.09-7.89-3.77-7.83-8.83a37.63,37.63,0,0,1,12.31-28c15.88-14.71,37.2-15,53.92-1.11,20.78,17.21,17,52.34-7.1,64.81-2.81,1.45-6,2.23-8.77,3.68a4.83,4.83,0,0,0-2.38,3.23c-.29,4,0,8-.15,12-.09,2.2.83,2.83,2.87,3.35,18.35,4.63,30.58,16,36.08,34.11,1.93,6.34,5.54,10.43,11.28,13.53q66.57,36,133,72.34c12.5,6.81,16.87,20.85,10.28,33-6.43,11.81-20.68,15.86-33,9a26.57,26.57,0,0,0-13.56-3.4q-154.06.15-308.14,0c-5.87,0-11,1-16.22,3.94a22.57,22.57,0,0,1-27.5-3.89c-3.15-3.32-5-7.88-7.43-11.88Zm336.92,5.85c-1.31-.93-1.8-1.35-2.36-1.66Q371,466.3,307.36,430.36c-2.18-1.23-3.77-1-5.83.14q-63,35.6-126,71.08c-1,.54-1.88,1.2-3.59,2.31ZM304.42,376.48c-1.84.2-3.72.25-5.53.62-13.3,2.74-22.14,10.64-25.89,23.63-3.08,10.67-9.6,17.85-19.28,23-34.28,18.4-68.38,37.11-102.54,55.71-10.26,5.59-20.55,11.12-30.75,16.81a7.55,7.55,0,0,0-3.17,10.58c2,3.64,6.24,4.92,10.33,3.08,1.32-.6,2.58-1.36,3.85-2.07Q214.56,461,297.62,414.13c4.84-2.74,8.82-2.84,13.69-.08q80.42,45.57,161,90.84c3.24,1.83,6.45,3.72,9.83,5.24,4.31,1.94,8.66-.14,10.21-4.58,1.45-4.13-.11-7.39-4.87-10q-66.63-36.3-133.23-72.64a54.7,54.7,0,0,1-9.4-6.61c-5.37-4.63-7.16-11.28-9.36-17.7A32.81,32.81,0,0,0,304.42,376.48Z" transform="translate(-100.15 -264.51)"/><path class="cls-1" d="M437.07,503.89H172c1.71-1.11,2.62-1.77,3.59-2.31q63-35.54,126-71.08c2.06-1.16,3.65-1.37,5.83-.14q63.64,36,127.35,71.87C435.27,502.54,435.76,503,437.07,503.89Z" transform="translate(-100.15 -264.51)"/></svg>